<svg xmlns="http://www.w3.org/2000/svg" width="228" height="228" fill="none" viewBox="0 0 228 228">
  <g filter="url(#a)">
    <path fill="url(#b)" d="M4 52C4 23.281 27.281 0 56 0h116c28.719 0 52 23.281 52 52v116c0 28.719-23.281 52-52 52H56c-28.719 0-52-23.281-52-52V52Z"/>
    <path fill="url(#c)" d="M97.345 154c-8.209 0-15.106-1.638-20.692-4.913-5.5-3.367-9.309-8.144-11.424-14.331-2.116-6.187-2.243-13.556-.381-22.109l10.917-50.088h21.834L86.3 115.922c-.846 4.186-.846 7.78 0 10.782.846 2.912 2.412 5.141 4.697 6.688 2.285 1.455 5.077 2.183 8.378 2.183 4.485 0 7.955-1.501 10.409-4.503 2.539-3.003 4.443-7.416 5.712-13.239l11.933-55.274h21.707l-12.06 55.956c-2.454 11.556-6.855 20.381-13.202 26.477-6.347 6.005-15.19 9.008-26.53 9.008Z"/>
    <path fill="url(#d)" d="m189 62.559-19.422 90.076h-21.834l19.422-90.076H189Z"/>
    <path fill="url(#e)" d="m77.479 103.332-2.031 9.076H62.246l-7.68 35.962H43.649l7.68-35.962H38l2.031-9.076H77.48Z"/>
    <path fill="url(#f)" d="M61.516 106.471c-2.877 0-5.607-.409-8.188-1.228a23.954 23.954 0 0 1-6.982-3.753c-2.073-1.684-3.829-3.753-5.268-6.21l6.347-6.756c1.016 1.956 2.285 3.594 3.809 4.913 1.523 1.32 3.173 2.32 4.95 3.003 1.82.637 3.597.955 5.332.955 1.227 0 2.242-.204 3.046-.614.804-.41 1.397-.955 1.778-1.638.423-.682.634-1.41.634-2.183 0-.956-.338-1.729-1.015-2.32-.635-.592-1.587-1.115-2.857-1.57l-6.156-2.184c-2.793-1-5.141-2.502-7.045-4.503-1.904-2.048-2.857-4.686-2.857-7.916 0-3.048.72-5.641 2.159-7.78 1.438-2.183 3.427-3.844 5.966-4.981S60.585 60 63.8 60c4.316 0 7.933.842 10.853 2.525 2.962 1.638 5.416 3.958 7.363 6.96l-6.665 6.551c-.846-1.638-1.883-2.957-3.11-3.958a11.349 11.349 0 0 0-4.062-2.252c-1.439-.5-2.898-.75-4.38-.75-1.226 0-2.242.182-3.046.546-.804.364-1.396.864-1.777 1.501-.38.591-.571 1.297-.571 2.115 0 .956.38 1.797 1.142 2.525.804.683 1.862 1.274 3.174 1.775l6.156 2.183c3.132 1.092 5.48 2.593 7.046 4.504 1.607 1.865 2.411 4.3 2.411 7.302 0 3.139-.761 5.823-2.284 8.052-1.481 2.229-3.491 3.935-6.03 5.118-2.539 1.183-5.374 1.774-8.505 1.774Z"/>
  </g>
  <defs>
    <linearGradient id="b" x1="114" x2="114" y1="0" y2="220" gradientUnits="userSpaceOnUse">
      <stop stop-color="#332828"/>
      <stop offset=".659" stop-color="#221717"/>
    </linearGradient>
    <linearGradient id="c" x1="113.3" x2="113.3" y1="43.168" y2="98.972" gradientUnits="userSpaceOnUse">
      <stop offset=".091" stop-color="#BB3D3D"/>
      <stop offset=".894" stop-color="#7D2727"/>
    </linearGradient>
    <linearGradient id="d" x1="113.3" x2="113.3" y1="43.168" y2="98.972" gradientUnits="userSpaceOnUse">
      <stop offset=".091" stop-color="#BB3D3D"/>
      <stop offset=".894" stop-color="#7D2727"/>
    </linearGradient>
    <linearGradient id="e" x1="113.3" x2="113.3" y1="43.168" y2="98.972" gradientUnits="userSpaceOnUse">
      <stop offset=".505" stop-color="#C97D7D"/>
      <stop offset="1" stop-color="#633D3D"/>
    </linearGradient>
    <linearGradient id="f" x1="113.3" x2="113.3" y1="43.168" y2="98.972" gradientUnits="userSpaceOnUse">
      <stop offset=".505" stop-color="#C97D7D"/>
      <stop offset="1" stop-color="#633D3D"/>
    </linearGradient>
    <filter id="a" width="228" height="228" x="0" y="0" color-interpolation-filters="sRGB" filterUnits="userSpaceOnUse">
      <feFlood flood-opacity="0" result="BackgroundImageFix"/>
      <feColorMatrix in="SourceAlpha" result="hardAlpha" values="0 0 0 0 0 0 0 0 0 0 0 0 0 0 0 0 0 0 127 0"/>
      <feOffset dy="4"/>
      <feGaussianBlur stdDeviation="2"/>
      <feComposite in2="hardAlpha" operator="out"/>
      <feColorMatrix values="0 0 0 0 0 0 0 0 0 0 0 0 0 0 0 0 0 0 0.25 0"/>
      <feBlend in2="BackgroundImageFix" result="effect1_dropShadow_1_14"/>
      <feBlend in="SourceGraphic" in2="effect1_dropShadow_1_14" result="shape"/>
    </filter>
  </defs>
</svg>
