<svg xmlns="http://www.w3.org/2000/svg" width="1508" height="286" fill="none" viewBox="0 0 1508 286">
  <g filter="url(#a)">
    <path fill="url(#b)" d="M15.739 197.463c7.772-15.404 23.348-25.088 40.351-25.088h171.825c16.055 0 30.915 8.643 39.074 22.729l7.648 13.203C292.481 239.112 270.678 278 235.563 278H49.429c-33.946 0-55.868-36.581-40.352-67.334l6.662-13.203Z"/>
    <path fill="url(#c)" d="M39.916 209.05c0-4.456 3.546-8.068 7.92-8.068h58.332c4.375 0 7.921 3.612 7.921 8.068 0 4.456-3.546 8.069-7.921 8.069H47.837c-4.375 0-7.922-3.613-7.922-8.069Z"/>
    <path fill="url(#d)" d="M28.393 231.055c0-4.456 3.547-8.068 7.922-8.068h79.935c4.374 0 7.921 3.612 7.921 8.068 0 4.457-3.547 8.069-7.921 8.069H36.315c-4.375 0-7.922-3.612-7.922-8.069Z"/>
    <path fill="url(#e)" d="M39.916 253.061c0-4.456 3.546-8.069 7.92-8.069h90.017c4.375 0 7.922 3.613 7.922 8.069 0 4.456-3.547 8.068-7.922 8.068H47.837c-4.375 0-7.922-3.612-7.922-8.068Z"/>
    <path fill="url(#f)" d="M74.482 187.045c0-4.456 3.546-8.069 7.921-8.069h54.73c4.375 0 7.922 3.613 7.922 8.069 0 4.456-3.547 8.068-7.922 8.068h-54.73c-4.375 0-7.921-3.612-7.921-8.068Z"/>
    <path fill="url(#g)" d="M165.939 222.987c0-4.456 3.546-8.069 7.921-8.069h74.174c4.375 0 7.921 3.613 7.921 8.069 0 4.456-3.546 8.068-7.921 8.068H173.86c-4.375 0-7.921-3.612-7.921-8.068Z"/>
    <path fill="url(#h)" d="M192.584 244.992c0-4.456 3.546-8.069 7.921-8.069h52.57c4.375 0 7.921 3.613 7.921 8.069 0 4.456-3.546 8.069-7.921 8.069h-52.57c-4.375 0-7.921-3.613-7.921-8.069Z"/>
    <path fill="url(#i)" d="M196.904 200.982c0-4.457 3.547-8.069 7.922-8.069h24.484c4.375 0 7.922 3.612 7.922 8.069 0 4.456-3.547 8.068-7.922 8.068h-24.484c-4.375 0-7.922-3.612-7.922-8.068Z"/>
    <path fill="url(#j)" d="M217.075 68.432c0 37.795-32.082 68.433-71.657 68.433-39.574 0-71.656-30.638-71.656-68.433C73.762 30.638 105.844 0 145.418 0c39.575 0 71.657 30.638 71.657 68.432Z"/>
    <path fill="url(#k)" d="M145.422 234.723 79.003 93.339l134.491-3.484-68.072 144.868Z"/>
    <path fill="url(#l)" d="M217.075 68.432c0 37.795-32.082 68.433-71.657 68.433-39.574 0-71.656-30.638-71.656-68.433C73.762 30.638 105.844 0 145.418 0c39.575 0 71.657 30.638 71.657 68.432Z"/>
    <path fill="url(#m)" d="M145.422 234.723 79.003 93.339l134.491-3.484-68.072 144.868Z"/>
    <path fill="url(#n)" d="M177.468 68.95c0 18.23-14.509 33.008-32.406 33.008S112.656 87.18 112.656 68.95c0-18.23 14.509-33.008 32.406-33.008s32.406 14.778 32.406 33.008Z"/>
    <path fill="url(#o)" d="M252.982 185.781c0 14.291-12.07 25.876-26.959 25.876-14.888 0-26.958-11.585-26.958-25.876s12.07-25.876 26.958-25.876c14.889 0 26.959 11.585 26.959 25.876Z"/>
    <path fill="url(#p)" d="m226.025 248.66-24.988-53.461 50.598-1.318-25.61 54.779Z"/>
    <path fill="url(#q)" d="M238.081 185.977c0 6.893-5.458 12.481-12.192 12.481-6.733 0-12.191-5.588-12.191-12.481s5.458-12.481 12.191-12.481c6.734 0 12.192 5.588 12.192 12.481Z"/>
    <path fill="url(#r)" d="M69.733 176.22c0 7.795-6.352 14.114-14.189 14.114-7.836 0-14.188-6.319-14.188-14.114 0-7.795 6.352-14.114 14.188-14.114 7.837 0 14.19 6.319 14.19 14.114Z"/>
    <path fill="url(#s)" d="m55.545 210.517-13.151-29.16 26.63-.719-13.479 29.879Z"/>
    <path fill="url(#t)" d="M61.89 176.326c0 3.76-2.872 6.808-6.416 6.808-3.544 0-6.417-3.048-6.417-6.808 0-3.759 2.873-6.807 6.417-6.807 3.544 0 6.417 3.048 6.417 6.807Z"/>
  </g>
  <path fill="#5BA2E8" d="M294 103.47V67h147.842v36.47h-51.163v130.251h-45.516V103.47H294ZM502.848 236c-13.843 0-25.693-2.686-35.549-8.059-9.856-5.427-17.414-12.971-22.675-22.631-5.26-9.715-7.89-20.976-7.89-33.784s2.63-24.042 7.89-33.702c5.261-9.715 12.819-17.258 22.675-22.631 9.856-5.427 21.706-8.141 35.549-8.141 13.842 0 25.692 2.714 35.548 8.141 9.856 5.373 17.414 12.916 22.675 22.631 5.26 9.66 7.89 20.894 7.89 33.702s-2.63 24.069-7.89 33.784c-5.261 9.66-12.819 17.204-22.675 22.631-9.856 5.373-21.706 8.059-35.548 8.059Zm.332-33.214c3.876 0 7.226-1.275 10.05-3.826 2.824-2.551 5.011-6.187 6.561-10.908 1.551-4.722 2.326-10.339 2.326-16.852 0-6.566-.775-12.183-2.326-16.851-1.55-4.721-3.737-8.358-6.561-10.908-2.824-2.551-6.174-3.826-10.05-3.826-4.098 0-7.614 1.275-10.548 3.826-2.935 2.55-5.178 6.187-6.728 10.908-1.551 4.668-2.326 10.285-2.326 16.851 0 6.513.775 12.13 2.326 16.852 1.55 4.721 3.793 8.357 6.728 10.908 2.934 2.551 6.45 3.826 10.548 3.826Zm167.111-23.771V108.68h45.848v125.041h-43.522V209.95h-1.329c-2.769 7.978-7.614 14.219-14.535 18.723-6.922 4.451-15.144 6.676-24.668 6.676-8.915 0-16.722-2.008-23.422-6.024-6.645-4.016-11.822-9.552-15.532-16.607-3.655-7.056-5.51-15.142-5.565-24.259V108.68h45.848v70.335c.055 6.187 1.661 11.045 4.817 14.572 3.212 3.528 7.697 5.292 13.455 5.292 3.821 0 7.115-.787 9.884-2.361 2.824-1.628 4.983-3.908 6.479-6.838 1.55-2.985 2.297-6.54 2.242-10.665Zm69.166 54.706V108.68h44.519v23.771h1.329c2.325-8.792 6.007-15.223 11.046-19.293 5.094-4.071 11.047-6.106 17.858-6.106 1.993 0 3.959.163 5.897.488 1.993.272 3.903.679 5.731 1.222v38.342c-2.271-.76-5.067-1.33-8.389-1.709-3.322-.38-6.174-.57-8.555-.57-4.485 0-8.527 1.004-12.126 3.012-3.544 1.953-6.34 4.721-8.389 8.303-2.049 3.528-3.073 7.68-3.073 12.455v65.126h-45.848Z"/>
  <path fill="#80D47A" d="M844.393 233.721V67h73.755c12.957 0 23.837 1.71 32.641 5.129 8.86 3.419 15.532 8.249 20.017 14.49 4.541 6.241 6.811 13.595 6.811 22.061 0 6.133-1.384 11.723-4.153 16.77-2.713 5.047-6.534 9.28-11.462 12.699-4.928 3.365-10.687 5.699-17.276 7.001v1.628c7.309.272 13.954 2.09 19.934 5.455 5.98 3.31 10.742 7.896 14.286 13.757 3.544 5.807 5.315 12.646 5.315 20.515 0 9.117-2.436 17.231-7.309 24.34-4.817 7.11-11.683 12.7-20.598 16.77s-19.546 6.106-31.894 6.106h-80.067Zm46.18-36.145h21.595c7.752 0 13.566-1.411 17.442-4.233 3.876-2.876 5.814-7.11 5.814-12.699 0-3.908-.914-7.219-2.741-9.932-1.827-2.714-4.43-4.776-7.808-6.187-3.322-1.411-7.336-2.117-12.043-2.117h-22.259v35.168Zm0-63.171h18.937c4.042 0 7.613-.624 10.714-1.873 3.101-1.248 5.51-3.039 7.226-5.373 1.772-2.387 2.658-5.291 2.658-8.71 0-5.156-1.882-9.09-5.648-11.804-3.765-2.768-8.527-4.152-14.286-4.152h-19.601v31.912ZM1062.75 236c-13.84 0-25.69-2.686-35.55-8.059-9.85-5.427-17.41-12.971-22.67-22.631-5.263-9.715-7.893-20.976-7.893-33.784s2.63-24.042 7.893-33.702c5.26-9.715 12.82-17.258 22.67-22.631 9.86-5.427 21.71-8.141 35.55-8.141 13.84 0 25.69 2.714 35.55 8.141 9.86 5.373 17.41 12.916 22.67 22.631 5.26 9.66 7.89 20.894 7.89 33.702s-2.63 24.069-7.89 33.784c-5.26 9.66-12.81 17.204-22.67 22.631-9.86 5.373-21.71 8.059-35.55 8.059Zm.33-33.214c3.88 0 7.23-1.275 10.05-3.826 2.83-2.551 5.01-6.187 6.56-10.908 1.55-4.722 2.33-10.339 2.33-16.852 0-6.566-.78-12.183-2.33-16.851-1.55-4.721-3.73-8.358-6.56-10.908-2.82-2.551-6.17-3.826-10.05-3.826-4.09 0-7.61 1.275-10.55 3.826-2.93 2.55-5.17 6.187-6.72 10.908-1.55 4.668-2.33 10.285-2.33 16.851 0 6.513.78 12.13 2.33 16.852 1.55 4.721 3.79 8.357 6.72 10.908 2.94 2.551 6.46 3.826 10.55 3.826Zm119.94 32.888c-8.14 0-15.34-1.302-21.6-3.907-6.2-2.659-11.07-6.675-14.62-12.048-3.54-5.373-5.31-12.211-5.31-20.515 0-6.838 1.19-12.672 3.57-17.502 2.38-4.885 5.7-8.873 9.97-11.967 4.26-3.093 9.22-5.454 14.86-7.082 5.71-1.628 11.85-2.687 18.44-3.175 7.15-.543 12.88-1.194 17.2-1.954 4.37-.814 7.53-1.927 9.46-3.338 1.94-1.465 2.91-3.392 2.91-5.779v-.326c0-3.256-1.27-5.753-3.82-7.489-2.55-1.737-5.81-2.605-9.8-2.605-4.37 0-7.95.949-10.71 2.849-2.72 1.845-4.35 4.694-4.9 8.547h-42.2c.56-7.598 3.02-14.598 7.39-21.002 4.43-6.459 10.88-11.614 19.36-15.468 8.47-3.907 19.04-5.861 31.72-5.861 9.14 0 17.34 1.058 24.59 3.175 7.25 2.062 13.43 4.966 18.52 8.71 5.1 3.691 8.97 8.032 11.63 13.025 2.71 4.939 4.07 10.312 4.07 16.119v85.64h-42.86v-17.584h-.99c-2.55 4.667-5.65 8.439-9.31 11.315-3.6 2.877-7.72 4.966-12.37 6.269-4.6 1.302-9.67 1.953-15.2 1.953Zm14.95-28.329c3.49 0 6.75-.706 9.8-2.117 3.1-1.411 5.62-3.446 7.56-6.105 1.93-2.659 2.9-5.889 2.9-9.688v-10.42c-1.21.489-2.52.95-3.9 1.384a59.53 59.53 0 0 1-4.32 1.221c-1.49.38-3.1.733-4.82 1.059-1.66.325-3.4.624-5.23.895-3.54.543-6.45 1.438-8.72 2.687-2.21 1.194-3.88 2.686-4.98 4.477-1.06 1.737-1.58 3.69-1.58 5.861 0 3.474 1.24 6.133 3.74 7.978 2.49 1.845 5.67 2.768 9.55 2.768Zm87.69 26.376V108.68h44.51v23.771h1.33c2.33-8.792 6.01-15.223 11.05-19.293 5.09-4.071 11.05-6.106 17.86-6.106 1.99 0 3.96.163 5.89.488 2 .272 3.91.679 5.74 1.222v38.342c-2.28-.76-5.07-1.33-8.39-1.709-3.33-.38-6.18-.57-8.56-.57-4.48 0-8.53 1.004-12.12 3.012-3.55 1.953-6.35 4.721-8.39 8.303-2.05 3.528-3.08 7.68-3.08 12.455v65.126h-45.84Zm140.28 1.628c-9.08 0-17.44-2.334-25.08-7.001-7.59-4.668-13.68-11.75-18.28-21.247-4.54-9.498-6.81-21.465-6.81-35.901 0-15.087 2.38-27.352 7.15-36.795 4.81-9.444 11.01-16.363 18.6-20.759 7.64-4.396 15.67-6.594 24.09-6.594 6.31 0 11.85 1.085 16.61 3.256 4.76 2.117 8.75 4.966 11.96 8.548 3.21 3.528 5.65 7.408 7.31 11.641h.66V67H1508v166.721h-45.52v-20.515h-.99c-1.77 4.233-4.32 8.032-7.64 11.397-3.27 3.311-7.26 5.943-11.96 7.897-4.65 1.899-9.97 2.849-15.95 2.849Zm16.94-34.517c4.21 0 7.81-1.194 10.8-3.582 3.05-2.442 5.37-5.861 6.98-10.257 1.66-4.45 2.49-9.714 2.49-15.793 0-6.187-.83-11.478-2.49-15.874-1.61-4.45-3.93-7.842-6.98-10.176-2.99-2.388-6.59-3.582-10.8-3.582-4.21 0-7.8 1.194-10.79 3.582-2.94 2.334-5.21 5.726-6.82 10.176-1.55 4.396-2.32 9.687-2.32 15.874 0 6.187.77 11.506 2.32 15.956 1.61 4.396 3.88 7.788 6.82 10.176 2.99 2.334 6.58 3.5 10.79 3.5Z"/>
  <defs>
    <linearGradient id="b" x1="137.258" x2="137.258" y1="-272.53" y2="493.901" gradientUnits="userSpaceOnUse">
      <stop stop-color="#58AAF0"/>
      <stop offset=".851" stop-color="#001E55"/>
    </linearGradient>
    <linearGradient id="c" x1="204.675" x2="252.7" y1="74.464" y2="74.464" gradientUnits="userSpaceOnUse">
      <stop stop-color="#26A612"/>
      <stop offset="1" stop-color="#65F21E"/>
    </linearGradient>
    <linearGradient id="d" x1="204.675" x2="252.7" y1="74.464" y2="74.464" gradientUnits="userSpaceOnUse">
      <stop stop-color="#26A612"/>
      <stop offset="1" stop-color="#65F21E"/>
    </linearGradient>
    <linearGradient id="e" x1="204.675" x2="252.7" y1="74.464" y2="74.464" gradientUnits="userSpaceOnUse">
      <stop stop-color="#26A612"/>
      <stop offset="1" stop-color="#65F21E"/>
    </linearGradient>
    <linearGradient id="f" x1="204.675" x2="252.7" y1="74.464" y2="74.464" gradientUnits="userSpaceOnUse">
      <stop stop-color="#26A612"/>
      <stop offset="1" stop-color="#65F21E"/>
    </linearGradient>
    <linearGradient id="g" x1="204.675" x2="252.7" y1="74.464" y2="74.464" gradientUnits="userSpaceOnUse">
      <stop stop-color="#26A612"/>
      <stop offset="1" stop-color="#65F21E"/>
    </linearGradient>
    <linearGradient id="h" x1="204.675" x2="252.7" y1="74.464" y2="74.464" gradientUnits="userSpaceOnUse">
      <stop stop-color="#26A612"/>
      <stop offset="1" stop-color="#65F21E"/>
    </linearGradient>
    <linearGradient id="i" x1="204.675" x2="252.7" y1="74.464" y2="74.464" gradientUnits="userSpaceOnUse">
      <stop stop-color="#26A612"/>
      <stop offset="1" stop-color="#65F21E"/>
    </linearGradient>
    <linearGradient id="j" x1="142.507" x2="142.507" y1="278" y2="54.731" gradientUnits="userSpaceOnUse">
      <stop stop-color="#070023"/>
      <stop offset=".716" stop-color="#286AC6"/>
      <stop offset=".928" stop-color="#609BED"/>
    </linearGradient>
    <linearGradient id="k" x1="142.507" x2="142.507" y1="278" y2="54.731" gradientUnits="userSpaceOnUse">
      <stop stop-color="#070023"/>
      <stop offset=".716" stop-color="#286AC6"/>
      <stop offset=".928" stop-color="#609BED"/>
    </linearGradient>
    <linearGradient id="l" x1="142.507" x2="142.507" y1="278" y2="54.731" gradientUnits="userSpaceOnUse">
      <stop stop-color="#070023"/>
      <stop offset=".716" stop-color="#286AC6"/>
      <stop offset=".928" stop-color="#609BED"/>
    </linearGradient>
    <linearGradient id="m" x1="142.507" x2="142.507" y1="278" y2="54.731" gradientUnits="userSpaceOnUse">
      <stop stop-color="#070023"/>
      <stop offset=".716" stop-color="#286AC6"/>
      <stop offset=".928" stop-color="#609BED"/>
    </linearGradient>
    <linearGradient id="n" x1="55.474" x2="55.474" y1="169.519" y2="183.134" gradientUnits="userSpaceOnUse">
      <stop stop-color="#fff"/>
      <stop offset="1" stop-color="#C3C3C3"/>
    </linearGradient>
    <linearGradient id="o" x1="142.507" x2="142.507" y1="278" y2="54.731" gradientUnits="userSpaceOnUse">
      <stop stop-color="#660404"/>
      <stop offset=".716" stop-color="#BC0D10"/>
      <stop offset="1" stop-color="#EB484B"/>
    </linearGradient>
    <linearGradient id="p" x1="142.507" x2="142.507" y1="278" y2="54.731" gradientUnits="userSpaceOnUse">
      <stop stop-color="#660404"/>
      <stop offset=".716" stop-color="#BC0D10"/>
      <stop offset="1" stop-color="#EB484B"/>
    </linearGradient>
    <linearGradient id="q" x1="55.474" x2="55.474" y1="169.519" y2="183.134" gradientUnits="userSpaceOnUse">
      <stop stop-color="#fff"/>
      <stop offset="1" stop-color="#C3C3C3"/>
    </linearGradient>
    <linearGradient id="r" x1="142.507" x2="142.507" y1="278" y2="54.731" gradientUnits="userSpaceOnUse">
      <stop stop-color="#B79002"/>
      <stop offset=".716" stop-color="#DFAE00"/>
      <stop offset="1" stop-color="#CCA80B"/>
    </linearGradient>
    <linearGradient id="s" x1="142.507" x2="142.507" y1="278" y2="54.731" gradientUnits="userSpaceOnUse">
      <stop stop-color="#B79002"/>
      <stop offset=".716" stop-color="#DFAE00"/>
      <stop offset="1" stop-color="#CCA80B"/>
    </linearGradient>
    <linearGradient id="t" x1="55.474" x2="55.474" y1="169.519" y2="183.134" gradientUnits="userSpaceOnUse">
      <stop stop-color="#fff"/>
      <stop offset="1" stop-color="#C3C3C3"/>
    </linearGradient>
    <filter id="a" width="285" height="286" x="0" y="0" color-interpolation-filters="sRGB" filterUnits="userSpaceOnUse">
      <feFlood flood-opacity="0" result="BackgroundImageFix"/>
      <feColorMatrix in="SourceAlpha" result="hardAlpha" values="0 0 0 0 0 0 0 0 0 0 0 0 0 0 0 0 0 0 127 0"/>
      <feOffset dy="4"/>
      <feGaussianBlur stdDeviation="2"/>
      <feComposite in2="hardAlpha" operator="out"/>
      <feColorMatrix values="0 0 0 0 0 0 0 0 0 0 0 0 0 0 0 0 0 0 0.25 0"/>
      <feBlend in2="BackgroundImageFix" result="effect1_dropShadow_3_6"/>
      <feBlend in="SourceGraphic" in2="effect1_dropShadow_3_6" result="shape"/>
      <feColorMatrix in="SourceAlpha" result="hardAlpha" values="0 0 0 0 0 0 0 0 0 0 0 0 0 0 0 0 0 0 127 0"/>
      <feOffset dy="4"/>
      <feGaussianBlur stdDeviation="2"/>
      <feComposite in2="hardAlpha" k2="-1" k3="1" operator="arithmetic"/>
      <feColorMatrix values="0 0 0 0 0 0 0 0 0 0 0 0 0 0 0 0 0 0 0.25 0"/>
      <feBlend in2="shape" result="effect2_innerShadow_3_6"/>
    </filter>
  </defs>
</svg>
